# xmcd
#
# Track frame offsets: 
#        150
#        14837
#        27285
#        41054
#        55993
#        65802
#        81347
#        98691
#        112176
#        115992
#        136936
#        153289
#        163712
#        178273
#
# Disc length: 2517 seconds
#
# Revision: 0
# Processed by: cddbd v1.5.2PL0 Copyright (c) Steve Scherf et al.
# Submitted via: ExactAudioCopy v0.95b4
#
DISCID=c809d30e
DTITLE=The Fall - The Marshall Suite
DYEAR=1999
DGENRE=Punk
TTITLE0=Touch Sensitive
TTITLE1=F'-oldin' Money
TTITLE2=Shake-off
TTITLE3=Bound
TTITLE4=This Perfect Day
TTITLE5=(Jung Nev's) Antidotes
TTITLE6=Inevitable
TTITLE7=Anecdotes+Antidotes in B#
TTITLE8=Early Life Of Crying Marshal
TTITLE9=The Crying Marshal
TTITLE10=Birthday Song
TTITLE11=Mad. Men-Eng. Dog
TTITLE12=On My Own
TTITLE13=Tom Raggazzi (Finale)
EXTD=
EXTT0=
EXTT1=
EXTT2=
EXTT3=
EXTT4=
EXTT5=
EXTT6=
EXTT7=
EXTT8=
EXTT9=
EXTT10=
EXTT11=
EXTT12=
EXTT13=
PLAYORDER=
